<svg xmlns="http://www.w3.org/2000/svg" viewBox="0 0 789.27 240"><defs><style>.cls-1{fill:#ccced2;}.cls-2{fill:#414143;}.cls-3{fill:#e65129;}</style></defs><title>Asset 1</title><g id="Layer_2" data-name="Layer 2"><g id="Apeture"><path class="cls-1" d="M330.76,68V99.52c0,2.88-.84,3.48-3.36,3.48H317.2c-2.4,0-3.24-.6-3.24-3.48V19.84c0-2.88.84-3.48,3.24-3.48h19.44c22.2,0,35.76,6.36,35.76,25.8,0,13.44-6.24,20.76-16.32,23.88,4.92,3.12,7.68,9.12,12.84,20.4,1.32,3.12,2.52,3.24,5,3.24a9.51,9.51,0,0,0,4.08-.84c1.44-.72,1.8-.24,1.8,1.2V98.8c0,1.56-.48,2.52-2.28,3.36a22.58,22.58,0,0,1-8.64,1.56c-7.2,0-11.76-2.28-15.6-10.8-3.6-8.28-7.92-25-19.56-25ZM338.2,57.4c11.52,0,16.56-5,16.56-14.4,0-9.72-5.88-13.2-17.4-13.2h-6.6V57.4Z"/><path class="cls-1" d="M402.28,103H392c-2.4,0-3.12-.6-3.12-3.48V19.84c0-2.88.72-3.48,3.12-3.48h10.32c2.52,0,3.24.6,3.24,3.48V99.52C405.52,102.4,404.8,103,402.28,103Z"/><path class="cls-1" d="M469.36,31.12c0,1.44-.6,1.8-1.92,1.32a44.94,44.94,0,0,0-18.12-3.84c-7.92,0-13.68,3.36-13.68,9.72,0,15.84,37.2,5.4,37.2,39.36,0,19.56-12.48,26.76-31,26.76-12.84,0-20.64-3.6-22-4.32-1.68-.84-1.8-1.44-1.8-3.12V88c0-1.44.84-2.16,2.4-1.56,5.64,2.16,10.92,4.32,19.44,4.32,10.92,0,16.2-4.44,16.2-12.48,0-20.76-37-8.76-37-38.88C419.2,18,435.28,15,448.12,15c11.16,0,17.76,3.12,19.56,4.08s1.68,1.56,1.68,3.12Z"/><path class="cls-1" d="M485.08,99.52V19.84c0-2.88.72-3.48,3.12-3.48h19.08c31.08,0,45.6,14.52,45.6,43.44,0,29.52-14.76,43.2-45,43.2H488.2C485.8,103,485.08,102.4,485.08,99.52ZM501.76,29.8V89.56h6.12c18.72,0,27.24-7.8,27.24-29.76,0-22.92-9.84-30-28.08-30Z"/><path class="cls-1" d="M607.71,72.4V99.52c0,2.88-.72,3.48-3.24,3.48H594.15c-2.4,0-3.12-.6-3.12-3.48V19.84c0-2.88.72-3.48,3.12-3.48h22.08c21.24,0,34,6.48,34,27.36C650.19,64,638,72.4,617.31,72.4ZM617.79,59c10.32,0,14.88-5,14.88-14.76,0-10.44-5.4-14.4-15.6-14.4h-9.36V59Z"/><path class="cls-1" d="M678.51,68V99.52c0,2.88-.84,3.48-3.36,3.48H665c-2.4,0-3.24-.6-3.24-3.48V19.84c0-2.88.84-3.48,3.24-3.48h19.44c22.2,0,35.76,6.36,35.76,25.8,0,13.44-6.24,20.76-16.32,23.88,4.92,3.12,7.68,9.12,12.84,20.4,1.32,3.12,2.52,3.24,5,3.24a9.51,9.51,0,0,0,4.08-.84c1.44-.72,1.8-.24,1.8,1.2V98.8c0,1.56-.48,2.52-2.28,3.36a22.58,22.58,0,0,1-8.64,1.56c-7.2,0-11.76-2.28-15.6-10.8-3.6-8.28-7.92-25-19.56-25ZM686,57.4c11.52,0,16.56-5,16.56-14.4,0-9.72-5.88-13.2-17.4-13.2h-6.6V57.4Z"/><path class="cls-1" d="M736.59,99.52V19.84c0-2.88.72-3.48,3.12-3.48h45c2.76,0,3.36.72,3.36,3.36v6.6c0,2.64-.6,3.48-3.36,3.48H753.27V52.24H779c2.64,0,3.24.72,3.24,3.36v6.6c0,2.64-.6,3.36-3.24,3.36H753.27v24h32.28c2.64,0,3.24.84,3.24,3.48v6.6c0,2.64-.6,3.36-3.24,3.36H739.71C737.31,103,736.59,102.4,736.59,99.52Z"/><path class="cls-2" d="M352.6,209.64a47,47,0,0,0,18.72-4.08c1.92-.84,3.24-1.32,3.24,1.2V216c0,1.44,0,2.52-1.92,3.6-1.32.84-8,4.44-21.36,4.44-28.8,0-41-17.16-41-44,0-27.12,12.24-45.24,39.36-45.24,9.12,0,18.72,2,22.32,4.44,1.44,1,1.44,1.68,1.44,3.72V152c0,1.32-.72,2-2.52,1.32-4.44-1.56-10.68-4.08-18.24-4.08-17.76,0-24.6,13.2-24.6,30.84S334.84,209.64,352.6,209.64Z"/><path class="cls-2" d="M420.76,134.76c30.12,0,40.68,21.84,40.68,44.64,0,20.28-9.12,44.88-40.56,44.88-30.24,0-40.68-22-40.68-44.64C380.2,159.24,389.44,134.76,420.76,134.76Zm-22.92,44.76c0,12.48,4.08,30.48,23,30.48,18,0,22.92-16.8,22.92-30.36,0-12.48-4-30.6-23.16-30.6C403,149,397.84,165.72,397.84,179.52Z"/><path class="cls-2" d="M473.32,219.24V139.56c0-2.88.72-3.48,3.12-3.48h10.32c2.52,0,3.24.6,3.24,3.48v69.72h31.44c2.64,0,3.24.84,3.24,3.48v6.6c0,2.64-.6,3.36-3.24,3.36h-45C474,222.72,473.32,222.12,473.32,219.24Z"/><path class="cls-2" d="M534.64,219.24V139.56c0-2.88.72-3.48,3.12-3.48h10.32c2.52,0,3.24.6,3.24,3.48v69.72h31.44c2.64,0,3.24.84,3.24,3.48v6.6c0,2.64-.6,3.36-3.24,3.36h-45C535.36,222.72,534.64,222.12,534.64,219.24Z"/><path class="cls-2" d="M596,219.24V139.56c0-2.88.72-3.48,3.12-3.48h45c2.76,0,3.36.72,3.36,3.36V146c0,2.64-.6,3.48-3.36,3.48H612.64V172h25.68c2.64,0,3.24.72,3.24,3.36v6.6c0,2.64-.6,3.36-3.24,3.36H612.64v24h32.28c2.64,0,3.24.84,3.24,3.48v6.6c0,2.64-.6,3.36-3.24,3.36H599.08C596.68,222.72,596,222.12,596,219.24Z"/><path class="cls-2" d="M695.31,179.16c0-1.68.36-2.88,2.16-2.88h24.36a1.77,1.77,0,0,1,1.92,1.92v35.88c0,3.36-.72,4.32-4.08,5.64A71.26,71.26,0,0,1,695,224c-24.36,0-41.28-14.76-41.28-44.28,0-29.16,17-44.76,41.4-44.76,13.2,0,21.84,4.32,25,7.2a3.39,3.39,0,0,1,1.44,3v10.08c0,1.92-1.32,2.28-2.88,1.08a40.27,40.27,0,0,0-22.68-7.08c-18.84,0-24.6,13.92-24.6,30.24,0,18,6.84,30.12,24.6,30.12A42.72,42.72,0,0,0,708,207.72v-17H697.47c-1.44,0-2.16-.84-2.16-2.76Z"/><path class="cls-2" d="M737.07,219.24V139.56c0-2.88.72-3.48,3.12-3.48h45c2.76,0,3.36.72,3.36,3.36V146c0,2.64-.6,3.48-3.36,3.48H753.75V172h25.68c2.64,0,3.24.72,3.24,3.36v6.6c0,2.64-.6,3.36-3.24,3.36H753.75v24H786c2.64,0,3.24.84,3.24,3.48v6.6c0,2.64-.6,3.36-3.24,3.36H740.19C737.79,222.72,737.07,222.12,737.07,219.24Z"/><path class="cls-3" d="M0,0V240H240V0ZM171,171H69V68H171Z"/></g></g></svg>